<?xml version="1.0" encoding="utf-8"?>
<!-- Generator: Adobe Illustrator 17.0.2, SVG Export Plug-In . SVG Version: 6.00 Build 0)  -->
<!DOCTYPE svg PUBLIC "-//W3C//DTD SVG 1.1//EN" "http://www.w3.org/Graphics/SVG/1.1/DTD/svg11.dtd">
<svg version="1.1" id="Layer_1" xmlns="http://www.w3.org/2000/svg" xmlns:xlink="http://www.w3.org/1999/xlink" x="0px" y="0px"
	 width="215.097px" height="216.92px" viewBox="0 0 215.097 216.92" enable-background="new 0 0 215.097 216.92"
	 xml:space="preserve">
<path fill="#878787" d="M135.14,119.646c20.06,0,36.33-16.27,36.33-36.34c0-16.3-10.74-30.1-25.53-34.7
	c-0.02-0.01-0.04-0.02-0.06-0.02c-4.44-0.99-8.88-1.41-12.83-1.56c-1.28-0.04-2.51-0.06-3.67-0.06c-15.71,0-34.86,7.86-50.57,11.3
	c-11.23,2.46-27.72,3.65-36.21,4.13c-1.26,3.98-7.18,24.62-0.05,41.53h-2.16c-6.66-16.7-1.61-35.97,0.07-41.41
	c-2.14,0.11-3.39,0.16-3.39,0.16c-8.35,27.5,0,41.25,0,41.25l25.04,1c23.2,1.86,46.16,16.19,46.16,16.19
	c0,15.71,0.97,34.36,4.91,48.12c3.92,13.74,5.4,15.22,16.2,15.22c1.28,0,2.34-0.21,3.22-0.59c6.6-2.8,3.17-14.63,3.17-14.63
	c-10.32-26.02-1.48-49.59-1.48-49.59H135.14z M135.13,51.676c17.47,0,31.63,14.16,31.63,31.63s-14.16,31.63-31.63,31.63
	c-17.46,0-31.62-14.16-31.62-31.63S117.67,51.676,135.13,51.676z M110.9,128.466c0,0.51-0.41,0.91-0.91,0.91
	c-0.51,0-0.92-0.4-0.92-0.91v-6.04c0-0.5,0.41-0.91,0.92-0.91c0.5,0,0.91,0.41,0.91,0.91V128.466z M122.5,134.866
	c-2.44,0-4.41-1.98-4.41-4.42c0-2.44,1.97-4.42,4.41-4.42c2.45,0,4.42,1.98,4.42,4.42C126.92,132.886,124.95,134.866,122.5,134.866z
	"/>
<path fill="#878787" d="M137.4,71.089c-5.66,0-10.27,4.61-10.27,10.27c0,2.48,0.87,4.74,2.34,6.52l14.45-14.46
	C142.14,71.959,139.88,71.089,137.4,71.089z M145.33,74.839l-14.45,14.45c1.77,1.47,4.05,2.35,6.52,2.35
	c5.67,0,10.28-4.61,10.28-10.28C147.68,78.889,146.8,76.609,145.33,74.839z M145.33,74.839l-14.45,14.45
	c1.77,1.47,4.05,2.35,6.52,2.35c5.67,0,10.28-4.61,10.28-10.28C147.68,78.889,146.8,76.609,145.33,74.839z M137.4,71.089
	c-5.66,0-10.27,4.61-10.27,10.27c0,2.48,0.87,4.74,2.34,6.52l14.45-14.46C142.14,71.959,139.88,71.089,137.4,71.089z M137.4,71.089
	c-5.66,0-10.27,4.61-10.27,10.27c0,2.48,0.87,4.74,2.34,6.52l14.45-14.46C142.14,71.959,139.88,71.089,137.4,71.089z M145.46,73.479
	c0.21,0.2,0.4,0.42,0.59,0.64l0.03-0.03L145.46,73.479z M144.63,72.709c0.22,0.18,0.44,0.37,0.64,0.57l-0.61-0.6L144.63,72.709z
	 M145.33,74.839l-14.45,14.45c1.77,1.47,4.05,2.35,6.52,2.35c5.67,0,10.28-4.61,10.28-10.28
	C147.68,78.889,146.8,76.609,145.33,74.839z M145.33,74.839l-14.45,14.45c1.77,1.47,4.05,2.35,6.52,2.35
	c5.67,0,10.28-4.61,10.28-10.28C147.68,78.889,146.8,76.609,145.33,74.839z M146.08,74.089l-0.62-0.61c0.21,0.2,0.4,0.42,0.59,0.64
	L146.08,74.089z M144.66,72.679l-0.03,0.03c0.22,0.18,0.44,0.37,0.64,0.57L144.66,72.679z M137.4,71.089
	c-5.66,0-10.27,4.61-10.27,10.27c0,2.48,0.87,4.74,2.34,6.52l14.45-14.46C142.14,71.959,139.88,71.089,137.4,71.089z M137.19,54.279
	c-15.09,0-27.32,12.22-27.32,27.31c0,15.08,12.23,27.31,27.32,27.31c15.08,0,27.31-12.23,27.31-27.31
	C164.5,66.499,152.27,54.279,137.19,54.279z M137.4,93.639c-6.76,0-12.27-5.51-12.27-12.28c0-6.76,5.51-12.27,12.27-12.27
	c6.77,0,12.28,5.51,12.28,12.27C149.68,88.129,144.17,93.639,137.4,93.639z M130.88,89.289c1.77,1.47,4.05,2.35,6.52,2.35
	c5.67,0,10.28-4.61,10.28-10.28c0-2.47-0.88-4.75-2.35-6.52L130.88,89.289z M146.05,74.119l0.03-0.03l-0.62-0.61
	C145.67,73.679,145.86,73.899,146.05,74.119z M144.66,72.679l-0.03,0.03c0.22,0.18,0.44,0.37,0.64,0.57L144.66,72.679z
	 M137.4,71.089c-5.66,0-10.27,4.61-10.27,10.27c0,2.48,0.87,4.74,2.34,6.52l14.45-14.46C142.14,71.959,139.88,71.089,137.4,71.089z
	 M137.4,71.089c-5.66,0-10.27,4.61-10.27,10.27c0,2.48,0.87,4.74,2.34,6.52l14.45-14.46C142.14,71.959,139.88,71.089,137.4,71.089z
	 M145.33,74.839l-14.45,14.45c1.77,1.47,4.05,2.35,6.52,2.35c5.67,0,10.28-4.61,10.28-10.28
	C147.68,78.889,146.8,76.609,145.33,74.839z M145.33,74.839l-14.45,14.45c1.77,1.47,4.05,2.35,6.52,2.35
	c5.67,0,10.28-4.61,10.28-10.28C147.68,78.889,146.8,76.609,145.33,74.839z M137.4,71.089c-5.66,0-10.27,4.61-10.27,10.27
	c0,2.48,0.87,4.74,2.34,6.52l14.45-14.46C142.14,71.959,139.88,71.089,137.4,71.089z"/>
<path fill="#878787" d="M145.94,48.606c-0.02-0.01-0.04-0.02-0.06-0.02c-3.4-1.05-7-1.62-10.74-1.62c-0.7,0-1.4,0.02-2.09,0.06
	c-19.1,1.08-34.25,16.91-34.25,36.28c0,20.07,16.26,36.34,36.34,36.34c20.06,0,36.33-16.27,36.33-36.34
	C171.47,67.006,160.73,53.206,145.94,48.606z M135.13,114.936c-17.46,0-31.62-14.16-31.62-31.63s14.16-31.63,31.62-31.63
	c17.47,0,31.63,14.16,31.63,31.63S152.6,114.936,135.13,114.936z"/>
<g>
	<g>
		<path fill="#878787" d="M145.46,73.479c0.21,0.2,0.4,0.42,0.59,0.64l0.03-0.03L145.46,73.479z M144.63,72.709
			c0.22,0.18,0.44,0.37,0.64,0.57l-0.61-0.6L144.63,72.709z"/>
	</g>
	<path fill="#878787" d="M144.66,72.679l0.61,0.6c-0.2-0.2-0.42-0.39-0.64-0.57L144.66,72.679z"/>
	<path fill="#878787" d="M146.08,74.089l-0.03,0.03c-0.19-0.22-0.38-0.44-0.59-0.64L146.08,74.089z"/>
</g>
<g>
	<path fill="#878787" d="M189.073,175.515c15.497-18.818,24.031-42.632,24.031-67.056c0-58.204-47.352-105.556-105.556-105.556
		C49.345,2.904,1.993,50.256,1.993,108.459c0,58.204,47.352,105.557,105.556,105.557c27.093,0,52.575-10.14,72.211-28.598
		c-0.706-0.803-1.378-1.605-2.015-2.408c-19.071,17.988-43.848,27.871-70.196,27.871c-56.476,0-102.422-45.947-102.422-102.424
		c0-56.476,45.947-102.422,102.422-102.422c56.476,0,102.422,45.946,102.422,102.422c0,23.698-8.28,46.806-23.317,65.065
		L189.073,175.515z"/>
</g>
<path fill="#878787" d="M144.138,186.461c-6.654,0-12.412-0.91-14.726-2.089l1.361-2.674c4.378,2.232,24.702,3.261,34.9-2.648
	c-6.866-1.957-12.863-5.702-15.348-9.938c-2.843-4.846-2.094-7.959-0.965-9.718c1.866-2.907,6.145-4.32,11.418-3.788
	c4.61,0.467,10.636,2.673,12.444,7.353c2.576,6.668,1.213,11.288-1.022,14.336c0.442,0.049,0.885,0.09,1.325,0.12
	c6.174,0.434,10.91-1.028,13.345-4.104l2.352,1.861c-3.067,3.876-8.722,5.726-15.904,5.235c-1.229-0.086-2.458-0.238-3.678-0.45
	C163.656,184.813,153.087,186.461,144.138,186.461z M158.681,158.498c-3.2,0-5.773,0.926-6.795,2.517
	c-1.223,1.905-0.116,4.63,1.028,6.58c2.348,4.003,8.815,7.613,15.836,9.133c3.188-3.201,3.734-7.359,1.675-12.687
	c-1.052-2.722-5.142-4.963-9.947-5.45C159.861,158.528,159.261,158.498,158.681,158.498z"/>
</svg>
